<mxfile host="app.diagrams.net" modified="2023-10-02T19:31:41.070Z" agent="Mozilla/5.0 (Windows NT 10.0; Win64; x64) AppleWebKit/537.36 (KHTML, like Gecko) Chrome/117.0.0.0 Safari/537.36" etag="zeOBjQClWoYAm7zOVvUG" version="21.8.0" type="device">
  <diagram id="C5RBs43oDa-KdzZeNtuy" name="Page-1">
    <mxGraphModel dx="989" dy="523" grid="0" gridSize="10" guides="1" tooltips="1" connect="1" arrows="1" fold="1" page="1" pageScale="1" pageWidth="827" pageHeight="1169" math="0" shadow="0">
      <root>
        <mxCell id="WIyWlLk6GJQsqaUBKTNV-0" />
        <mxCell id="WIyWlLk6GJQsqaUBKTNV-1" parent="WIyWlLk6GJQsqaUBKTNV-0" />
        <mxCell id="XnhOhsrcbPEc2k6Vqo-I-55" value="&lt;font style=&quot;font-size: 17px;&quot;&gt;gen_mas&lt;/font&gt;" style="rounded=1;whiteSpace=wrap;html=1;fontSize=14;glass=0;strokeWidth=1;shadow=0;" vertex="1" parent="WIyWlLk6GJQsqaUBKTNV-1">
          <mxGeometry x="359.16666666666674" y="342.16666666666674" width="120" height="40" as="geometry" />
        </mxCell>
        <mxCell id="XnhOhsrcbPEc2k6Vqo-I-56" value="Конец" style="rounded=1;whiteSpace=wrap;html=1;fontSize=12;glass=0;strokeWidth=1;shadow=0;" vertex="1" parent="WIyWlLk6GJQsqaUBKTNV-1">
          <mxGeometry x="359.16666666666674" y="795.9966666666667" width="120" height="40" as="geometry" />
        </mxCell>
        <mxCell id="XnhOhsrcbPEc2k6Vqo-I-57" value="Вход. пар-ры: double* mas, int n&lt;br&gt;Возвр. знач.: mas" style="text;html=1;strokeColor=none;fillColor=none;align=left;verticalAlign=middle;whiteSpace=wrap;rounded=0;" vertex="1" parent="WIyWlLk6GJQsqaUBKTNV-1">
          <mxGeometry x="549.1666666666667" y="347.16999999999985" width="180.5" height="30" as="geometry" />
        </mxCell>
        <mxCell id="XnhOhsrcbPEc2k6Vqo-I-58" value="" style="endArrow=none;html=1;rounded=0;entryX=1;entryY=0.5;entryDx=0;entryDy=0;exitX=0;exitY=0.5;exitDx=0;exitDy=0;" edge="1" parent="WIyWlLk6GJQsqaUBKTNV-1" source="XnhOhsrcbPEc2k6Vqo-I-57" target="XnhOhsrcbPEc2k6Vqo-I-55">
          <mxGeometry width="50" height="50" relative="1" as="geometry">
            <mxPoint x="459.16666666666674" y="432.16666666666674" as="sourcePoint" />
            <mxPoint x="509.16666666666674" y="382.16666666666674" as="targetPoint" />
          </mxGeometry>
        </mxCell>
        <mxCell id="XnhOhsrcbPEc2k6Vqo-I-59" value="" style="endArrow=none;html=1;rounded=0;" edge="1" parent="WIyWlLk6GJQsqaUBKTNV-1">
          <mxGeometry width="50" height="50" relative="1" as="geometry">
            <mxPoint x="549.1666666666667" y="342.16666666666674" as="sourcePoint" />
            <mxPoint x="549.1666666666667" y="362.16666666666674" as="targetPoint" />
          </mxGeometry>
        </mxCell>
        <mxCell id="XnhOhsrcbPEc2k6Vqo-I-60" value="" style="endArrow=none;html=1;rounded=0;" edge="1" parent="WIyWlLk6GJQsqaUBKTNV-1">
          <mxGeometry width="50" height="50" relative="1" as="geometry">
            <mxPoint x="549.1666666666667" y="382.16666666666674" as="sourcePoint" />
            <mxPoint x="549.1666666666667" y="362.16666666666674" as="targetPoint" />
          </mxGeometry>
        </mxCell>
        <mxCell id="XnhOhsrcbPEc2k6Vqo-I-61" value="" style="endArrow=none;html=1;rounded=0;" edge="1" parent="WIyWlLk6GJQsqaUBKTNV-1">
          <mxGeometry width="50" height="50" relative="1" as="geometry">
            <mxPoint x="549.1666666666667" y="382.16666666666674" as="sourcePoint" />
            <mxPoint x="589.1666666666667" y="382.16666666666674" as="targetPoint" />
          </mxGeometry>
        </mxCell>
        <mxCell id="XnhOhsrcbPEc2k6Vqo-I-62" value="" style="endArrow=none;html=1;rounded=0;" edge="1" parent="WIyWlLk6GJQsqaUBKTNV-1">
          <mxGeometry width="50" height="50" relative="1" as="geometry">
            <mxPoint x="549.1666666666667" y="342.16666666666674" as="sourcePoint" />
            <mxPoint x="589.1666666666667" y="342.16666666666674" as="targetPoint" />
          </mxGeometry>
        </mxCell>
        <mxCell id="XnhOhsrcbPEc2k6Vqo-I-63" value="" style="endArrow=none;html=1;rounded=0;exitX=0.5;exitY=1;exitDx=0;exitDy=0;entryX=0.5;entryY=0;entryDx=0;entryDy=0;" edge="1" parent="WIyWlLk6GJQsqaUBKTNV-1" source="XnhOhsrcbPEc2k6Vqo-I-55">
          <mxGeometry width="50" height="50" relative="1" as="geometry">
            <mxPoint x="587.1666666666667" y="657.1666666666667" as="sourcePoint" />
            <mxPoint x="419.16666666666674" y="432.16666666666674" as="targetPoint" />
          </mxGeometry>
        </mxCell>
        <mxCell id="XnhOhsrcbPEc2k6Vqo-I-64" value="&lt;font style=&quot;font-size: 16px;&quot;&gt;srand(time(0))&lt;/font&gt;" style="rounded=0;whiteSpace=wrap;html=1;" vertex="1" parent="WIyWlLk6GJQsqaUBKTNV-1">
          <mxGeometry x="359.16666666666674" y="428.16666666666674" width="120" height="60" as="geometry" />
        </mxCell>
        <mxCell id="XnhOhsrcbPEc2k6Vqo-I-66" value="" style="endArrow=none;html=1;rounded=0;exitX=0.5;exitY=0;exitDx=0;exitDy=0;entryX=0.5;entryY=1;entryDx=0;entryDy=0;" edge="1" parent="WIyWlLk6GJQsqaUBKTNV-1" target="XnhOhsrcbPEc2k6Vqo-I-64">
          <mxGeometry width="50" height="50" relative="1" as="geometry">
            <mxPoint x="419.16666666666674" y="515.5" as="sourcePoint" />
            <mxPoint x="664.6666666666667" y="464.5" as="targetPoint" />
          </mxGeometry>
        </mxCell>
        <mxCell id="XnhOhsrcbPEc2k6Vqo-I-67" value="mas[i] = ((double)((int)(rand() % 600) - 300)) / 10.0;" style="rounded=0;whiteSpace=wrap;html=1;" vertex="1" parent="WIyWlLk6GJQsqaUBKTNV-1">
          <mxGeometry x="359.16666666666674" y="619.5" width="120" height="60" as="geometry" />
        </mxCell>
        <mxCell id="XnhOhsrcbPEc2k6Vqo-I-68" value="" style="endArrow=none;html=1;rounded=0;exitX=0.5;exitY=1;exitDx=0;exitDy=0;entryX=0.5;entryY=0;entryDx=0;entryDy=0;exitPerimeter=0;" edge="1" parent="WIyWlLk6GJQsqaUBKTNV-1" source="XnhOhsrcbPEc2k6Vqo-I-82" target="XnhOhsrcbPEc2k6Vqo-I-67">
          <mxGeometry width="50" height="50" relative="1" as="geometry">
            <mxPoint x="419.16666666666674" y="595.5" as="sourcePoint" />
            <mxPoint x="664.6666666666667" y="626.5" as="targetPoint" />
          </mxGeometry>
        </mxCell>
        <mxCell id="XnhOhsrcbPEc2k6Vqo-I-69" value="" style="endArrow=none;html=1;rounded=0;exitX=0.5;exitY=1;exitDx=0;exitDy=0;" edge="1" parent="WIyWlLk6GJQsqaUBKTNV-1" source="XnhOhsrcbPEc2k6Vqo-I-67">
          <mxGeometry width="50" height="50" relative="1" as="geometry">
            <mxPoint x="614.6666666666667" y="676.5" as="sourcePoint" />
            <mxPoint x="419.66666666666674" y="708.5" as="targetPoint" />
          </mxGeometry>
        </mxCell>
        <mxCell id="XnhOhsrcbPEc2k6Vqo-I-82" value="i = 0; i &amp;lt; n; ++i" style="strokeWidth=2;html=1;shape=mxgraph.flowchart.loop_limit;whiteSpace=wrap;" vertex="1" parent="WIyWlLk6GJQsqaUBKTNV-1">
          <mxGeometry x="369.17" y="516" width="100" height="60" as="geometry" />
        </mxCell>
        <mxCell id="XnhOhsrcbPEc2k6Vqo-I-83" value="i" style="strokeWidth=2;html=1;shape=mxgraph.flowchart.loop_limit;whiteSpace=wrap;flipH=1;flipV=1;" vertex="1" parent="WIyWlLk6GJQsqaUBKTNV-1">
          <mxGeometry x="369.17" y="709" width="100" height="60" as="geometry" />
        </mxCell>
        <mxCell id="XnhOhsrcbPEc2k6Vqo-I-84" value="" style="endArrow=none;html=1;rounded=0;exitX=0.5;exitY=0;exitDx=0;exitDy=0;exitPerimeter=0;entryX=0.5;entryY=0;entryDx=0;entryDy=0;" edge="1" parent="WIyWlLk6GJQsqaUBKTNV-1" source="XnhOhsrcbPEc2k6Vqo-I-83" target="XnhOhsrcbPEc2k6Vqo-I-56">
          <mxGeometry width="50" height="50" relative="1" as="geometry">
            <mxPoint x="332" y="687" as="sourcePoint" />
            <mxPoint x="382" y="637" as="targetPoint" />
          </mxGeometry>
        </mxCell>
      </root>
    </mxGraphModel>
  </diagram>
</mxfile>
